# xmcd
#
# Track frame offsets:
#	150
#	19927
#	42355
#	63610
#	89697
#	107105
#	125305
#	142447
#	160317
#	185965
#	206375
#	227217
#	246775
#	270585
#	291750
#
# Disc length: 4181 seconds
#
# Revision: 1
# Processed by: cddbd v1.5.1PL0 Copyright (c) Steve Scherf et al.
# Submitted via: CDex 1.50Beta5
#
DISCID=ec10530f
DTITLE=和田アキ子 - LOVE BALLAD BEST
DYEAR=2000
DGENRE=Pop
TTITLE0=今あなたにうたいたい
TTITLE1=泣かずにいられない
TTITLE2=南青山-心はcloseできない-
TTITLE3=外は白い雪の夜
TTITLE4=あの鐘を鳴らすのはあなた
TTITLE5=星空の孤独
TTITLE6=コーラス・ガール
TTITLE7=別れの余韻
TTITLE8=死ぬまで忘れへん
TTITLE9=Mother
TTITLE10=絶対に泣かない
TTITLE11=よくやるね(Ballad)
TTITLE12=ぽろぽろ
TTITLE13=スロー・バラード
TTITLE14=もう一度ふたりで歌いたい
EXTD=
EXTT0=
EXTT1=
EXTT2=
EXTT3=
EXTT4=
EXTT5=
EXTT6=
EXTT7=
EXTT8=
EXTT9=
EXTT10=
EXTT11=
EXTT12=
EXTT13=
EXTT14=
PLAYORDER=
